<mxfile host="65bd71144e">
    <diagram id="7eHJUIr0t9Ja8vOn8rY8" name="Page-1">
        <mxGraphModel dx="1953" dy="1144" grid="0" gridSize="10" guides="1" tooltips="1" connect="1" arrows="1" fold="1" page="1" pageScale="1" pageWidth="8500" pageHeight="1100" math="0" shadow="0">
            <root>
                <mxCell id="0"/>
                <mxCell id="1" parent="0"/>
                <mxCell id="2" value="" style="endArrow=classic;html=1;fillColor=#1ba1e2;strokeColor=#006EAF;strokeWidth=10;" edge="1" parent="1">
                    <mxGeometry width="50" height="50" relative="1" as="geometry">
                        <mxPoint x="80" y="160" as="sourcePoint"/>
                        <mxPoint x="800" y="160" as="targetPoint"/>
                    </mxGeometry>
                </mxCell>
                <mxCell id="3" value="&lt;div style=&quot;font-size: 31px;&quot;&gt;&lt;span style=&quot;background-color: initial; font-size: 31px;&quot;&gt;Main Screen Navigation and Explanation&lt;/span&gt;&lt;/div&gt;" style="text;html=1;align=left;verticalAlign=bottom;resizable=0;points=[];autosize=1;strokeColor=none;fillColor=none;fontColor=#006EAF;fontSize=31;" vertex="1" parent="1">
                    <mxGeometry x="80" y="100" width="580" height="50" as="geometry"/>
                </mxCell>
                <mxCell id="4" value="" style="rounded=0;whiteSpace=wrap;html=1;fontSize=31;fontColor=#333333;fillColor=#f5f5f5;strokeColor=#666666;" vertex="1" parent="1">
                    <mxGeometry x="70" y="240" width="560" height="540" as="geometry"/>
                </mxCell>
                <mxCell id="6" value="&amp;nbsp;links to spotify etc" style="rounded=0;whiteSpace=wrap;html=1;fontSize=12;fontColor=#006EAF;fillColor=none;strokeColor=#000000;align=left;verticalAlign=middle;spacing=0;" vertex="1" parent="1">
                    <mxGeometry x="440" y="260" width="170" height="20" as="geometry"/>
                </mxCell>
                <mxCell id="8" value="hero image featuring microphone" style="rounded=0;whiteSpace=wrap;html=1;strokeColor=#000000;fontFamily=Helvetica;fontSize=31;fontColor=#006EAF;fillColor=none;" vertex="1" parent="1">
                    <mxGeometry x="90" y="290" width="520" height="150" as="geometry"/>
                </mxCell>
                <mxCell id="12" value="includes a play button, title, summary, thumbnail, link to youtube for video version" style="rounded=0;whiteSpace=wrap;html=1;strokeColor=#000000;fontFamily=Helvetica;fontSize=12;fontColor=#006EAF;fillColor=none;" vertex="1" parent="1">
                    <mxGeometry x="90" y="470" width="520" height="60" as="geometry"/>
                </mxCell>
                <mxCell id="13" value="Latest Episode" style="text;html=1;strokeColor=none;fillColor=none;align=left;verticalAlign=bottom;whiteSpace=wrap;rounded=0;fontFamily=Helvetica;fontSize=12;fontColor=#006EAF;" vertex="1" parent="1">
                    <mxGeometry x="90" y="450" width="130" height="20" as="geometry"/>
                </mxCell>
                <mxCell id="20" value="Recent Episodes" style="shape=table;startSize=30;container=1;collapsible=0;childLayout=tableLayout;fixedRows=1;rowLines=0;fontStyle=1;rounded=0;strokeColor=#000000;fontFamily=Helvetica;fontSize=12;fontColor=#006EAF;fillColor=none;html=1;" vertex="1" parent="1">
                    <mxGeometry x="90" y="550" width="520" height="150" as="geometry"/>
                </mxCell>
                <mxCell id="21" value="" style="shape=tableRow;horizontal=0;startSize=0;swimlaneHead=0;swimlaneBody=0;top=0;left=0;bottom=0;right=0;collapsible=0;dropTarget=0;fillColor=none;points=[[0,0.5],[1,0.5]];portConstraint=eastwest;rounded=0;strokeColor=#000000;fontFamily=Helvetica;fontSize=12;fontColor=#006EAF;html=1;" vertex="1" parent="20">
                    <mxGeometry y="30" width="520" height="30" as="geometry"/>
                </mxCell>
                <mxCell id="22" value="2024-11-03" style="shape=partialRectangle;html=1;whiteSpace=wrap;connectable=0;fillColor=none;top=0;left=0;bottom=0;right=0;overflow=hidden;pointerEvents=1;rounded=0;strokeColor=#000000;fontFamily=Helvetica;fontSize=12;fontColor=#006EAF;" vertex="1" parent="21">
                    <mxGeometry width="81" height="30" as="geometry">
                        <mxRectangle width="81" height="30" as="alternateBounds"/>
                    </mxGeometry>
                </mxCell>
                <mxCell id="23" value="Intro, Book release, destroying the aggregate&amp;nbsp;" style="shape=partialRectangle;html=1;whiteSpace=wrap;connectable=0;fillColor=none;top=0;left=0;bottom=0;right=0;align=left;spacingLeft=6;overflow=hidden;rounded=0;strokeColor=#000000;fontFamily=Helvetica;fontSize=12;fontColor=#006EAF;" vertex="1" parent="21">
                    <mxGeometry x="81" width="439" height="30" as="geometry">
                        <mxRectangle width="439" height="30" as="alternateBounds"/>
                    </mxGeometry>
                </mxCell>
                <mxCell id="24" value="" style="shape=tableRow;horizontal=0;startSize=0;swimlaneHead=0;swimlaneBody=0;top=0;left=0;bottom=0;right=0;collapsible=0;dropTarget=0;fillColor=none;points=[[0,0.5],[1,0.5]];portConstraint=eastwest;rounded=0;strokeColor=#000000;fontFamily=Helvetica;fontSize=12;fontColor=#006EAF;html=1;" vertex="1" parent="20">
                    <mxGeometry y="60" width="520" height="30" as="geometry"/>
                </mxCell>
                <mxCell id="25" value="2024-11-12" style="shape=partialRectangle;html=1;whiteSpace=wrap;connectable=0;fillColor=none;top=0;left=0;bottom=0;right=0;overflow=hidden;rounded=0;strokeColor=#000000;fontFamily=Helvetica;fontSize=12;fontColor=#006EAF;" vertex="1" parent="24">
                    <mxGeometry width="81" height="30" as="geometry">
                        <mxRectangle width="81" height="30" as="alternateBounds"/>
                    </mxGeometry>
                </mxCell>
                <mxCell id="26" value="another topic" style="shape=partialRectangle;html=1;whiteSpace=wrap;connectable=0;fillColor=none;top=0;left=0;bottom=0;right=0;align=left;spacingLeft=6;overflow=hidden;rounded=0;strokeColor=#000000;fontFamily=Helvetica;fontSize=12;fontColor=#006EAF;" vertex="1" parent="24">
                    <mxGeometry x="81" width="439" height="30" as="geometry">
                        <mxRectangle width="439" height="30" as="alternateBounds"/>
                    </mxGeometry>
                </mxCell>
                <mxCell id="43" value="" style="shape=tableRow;horizontal=0;startSize=0;swimlaneHead=0;swimlaneBody=0;top=0;left=0;bottom=0;right=0;collapsible=0;dropTarget=0;fillColor=none;points=[[0,0.5],[1,0.5]];portConstraint=eastwest;rounded=0;strokeColor=#000000;fontFamily=Helvetica;fontSize=12;fontColor=#006EAF;html=1;" vertex="1" parent="20">
                    <mxGeometry y="90" width="520" height="30" as="geometry"/>
                </mxCell>
                <mxCell id="44" value="2024-11-12" style="shape=partialRectangle;html=1;whiteSpace=wrap;connectable=0;fillColor=none;top=0;left=0;bottom=0;right=0;overflow=hidden;rounded=0;strokeColor=#000000;fontFamily=Helvetica;fontSize=12;fontColor=#006EAF;" vertex="1" parent="43">
                    <mxGeometry width="81" height="30" as="geometry">
                        <mxRectangle width="81" height="30" as="alternateBounds"/>
                    </mxGeometry>
                </mxCell>
                <mxCell id="45" value="another topic" style="shape=partialRectangle;html=1;whiteSpace=wrap;connectable=0;fillColor=none;top=0;left=0;bottom=0;right=0;align=left;spacingLeft=6;overflow=hidden;rounded=0;strokeColor=#000000;fontFamily=Helvetica;fontSize=12;fontColor=#006EAF;" vertex="1" parent="43">
                    <mxGeometry x="81" width="439" height="30" as="geometry">
                        <mxRectangle width="439" height="30" as="alternateBounds"/>
                    </mxGeometry>
                </mxCell>
                <mxCell id="27" value="" style="shape=tableRow;horizontal=0;startSize=0;swimlaneHead=0;swimlaneBody=0;top=0;left=0;bottom=0;right=0;collapsible=0;dropTarget=0;fillColor=none;points=[[0,0.5],[1,0.5]];portConstraint=eastwest;rounded=0;strokeColor=#000000;fontFamily=Helvetica;fontSize=12;fontColor=#006EAF;html=1;" vertex="1" parent="20">
                    <mxGeometry y="120" width="520" height="30" as="geometry"/>
                </mxCell>
                <mxCell id="28" value="" style="shape=partialRectangle;html=1;whiteSpace=wrap;connectable=0;fillColor=none;top=0;left=0;bottom=0;right=0;overflow=hidden;rounded=0;strokeColor=#000000;fontFamily=Helvetica;fontSize=12;fontColor=#006EAF;" vertex="1" parent="27">
                    <mxGeometry width="81" height="30" as="geometry">
                        <mxRectangle width="81" height="30" as="alternateBounds"/>
                    </mxGeometry>
                </mxCell>
                <mxCell id="29" value="should be a list of all episodes with a play button for audio&amp;nbsp;" style="shape=partialRectangle;html=1;whiteSpace=wrap;connectable=0;fillColor=none;top=0;left=0;bottom=0;right=0;align=left;spacingLeft=6;overflow=hidden;rounded=0;strokeColor=#000000;fontFamily=Helvetica;fontSize=12;fontColor=#006EAF;" vertex="1" parent="27">
                    <mxGeometry x="81" width="439" height="30" as="geometry">
                        <mxRectangle width="439" height="30" as="alternateBounds"/>
                    </mxGeometry>
                </mxCell>
                <mxCell id="46" value="" style="endArrow=classic;html=1;fillColor=#1ba1e2;strokeColor=#006EAF;strokeWidth=10;" edge="1" parent="1">
                    <mxGeometry width="50" height="50" relative="1" as="geometry">
                        <mxPoint x="820" y="160" as="sourcePoint"/>
                        <mxPoint x="1540" y="160" as="targetPoint"/>
                    </mxGeometry>
                </mxCell>
                <mxCell id="47" value="&lt;div style=&quot;font-size: 31px;&quot;&gt;After Clicking on a recent episode, detail view&lt;/div&gt;" style="text;html=1;align=left;verticalAlign=bottom;resizable=0;points=[];autosize=1;strokeColor=none;fillColor=none;fontColor=#006EAF;fontSize=31;" vertex="1" parent="1">
                    <mxGeometry x="820" y="100" width="650" height="50" as="geometry"/>
                </mxCell>
                <mxCell id="48" value="" style="rounded=0;whiteSpace=wrap;html=1;fontSize=31;fontColor=#333333;fillColor=#f5f5f5;strokeColor=#666666;" vertex="1" parent="1">
                    <mxGeometry x="830" y="270" width="560" height="390" as="geometry"/>
                </mxCell>
                <mxCell id="49" value="&amp;nbsp;links to spotify etc" style="rounded=0;whiteSpace=wrap;html=1;fontSize=12;fontColor=#006EAF;fillColor=none;strokeColor=#000000;align=left;verticalAlign=middle;spacing=0;" vertex="1" parent="1">
                    <mxGeometry x="1180" y="310" width="170" height="20" as="geometry"/>
                </mxCell>
                <mxCell id="51" value="play button and controls" style="rounded=0;whiteSpace=wrap;html=1;strokeColor=#000000;fontFamily=Helvetica;fontSize=12;fontColor=#006EAF;fillColor=none;" vertex="1" parent="1">
                    <mxGeometry x="980" y="370" width="150" height="20" as="geometry"/>
                </mxCell>
                <mxCell id="52" value="link to youtube video version" style="rounded=0;whiteSpace=wrap;html=1;strokeColor=#000000;fontFamily=Helvetica;fontSize=12;fontColor=#006EAF;fillColor=none;" vertex="1" parent="1">
                    <mxGeometry x="1180" y="370" width="170" height="20" as="geometry"/>
                </mxCell>
                <mxCell id="53" value="Summary" style="rounded=0;whiteSpace=wrap;html=1;strokeColor=#000000;fontFamily=Helvetica;fontSize=12;fontColor=#006EAF;fillColor=none;" vertex="1" parent="1">
                    <mxGeometry x="980" y="390" width="370" height="60" as="geometry"/>
                </mxCell>
                <mxCell id="54" value="episode number, date" style="text;html=1;strokeColor=none;fillColor=none;align=left;verticalAlign=bottom;whiteSpace=wrap;rounded=0;fontFamily=Helvetica;fontSize=12;fontColor=#006EAF;" vertex="1" parent="1">
                    <mxGeometry x="890" y="330" width="130" height="20" as="geometry"/>
                </mxCell>
                <mxCell id="68" value="episode titile" style="text;html=1;strokeColor=none;fillColor=none;align=left;verticalAlign=bottom;whiteSpace=wrap;rounded=0;fontFamily=Helvetica;fontSize=21;fontColor=#006EAF;" vertex="1" parent="1">
                    <mxGeometry x="890" y="310" width="130" height="20" as="geometry"/>
                </mxCell>
                <mxCell id="69" value="thumbnail" style="whiteSpace=wrap;html=1;aspect=fixed;rounded=0;strokeColor=#000000;fontFamily=Helvetica;fontSize=12;fontColor=#006EAF;fillColor=none;" vertex="1" parent="1">
                    <mxGeometry x="890" y="370" width="80" height="80" as="geometry"/>
                </mxCell>
                <mxCell id="70" value="Summary" style="rounded=0;whiteSpace=wrap;html=1;strokeColor=#000000;fontFamily=Helvetica;fontSize=12;fontColor=#006EAF;fillColor=none;" vertex="1" parent="1">
                    <mxGeometry x="890" y="460" width="460" height="60" as="geometry"/>
                </mxCell>
            </root>
        </mxGraphModel>
    </diagram>
</mxfile>